HIERARCHY
ROOT Root
{
	OFFSET 0.00000 0.00000 0.00000
	CHANNELS 6 Xposition Yposition Zposition Zrotation Xrotation Yrotation
	JOINT Hips
	{
		OFFSET 0 0 0	
		CHANNELS 3 Zrotation Xrotation Yrotation
		JOINT Spine
		{
			OFFSET 0 4 0	
			CHANNELS 3 Zrotation Xrotation Yrotation
			JOINT Spine1
			{
				OFFSET 0 19.4 0	
				CHANNELS 3 Zrotation Xrotation Yrotation
				JOINT Spine2
				{
					OFFSET 0 16.6 0	
					CHANNELS 3 Zrotation Xrotation Yrotation
					JOINT LeftCollar
					{
						OFFSET 0 10 0	
						CHANNELS 3 Zrotation Xrotation Yrotation
						JOINT LeftArm
						{
							OFFSET 15.6 -2 3	
							CHANNELS 3 Zrotation Xrotation Yrotation
							JOINT LeftForeArm
							{
								OFFSET 3.5 -27 -1	
								CHANNELS 3 Zrotation Xrotation Yrotation
								JOINT LeftHand
								{
									OFFSET 1 -27 1	
									CHANNELS 3 Zrotation Xrotation Yrotation
									End Site
									{
										OFFSET 0 -15 0
									}
								}
							}
						}
					}
					JOINT RightCollar
					{
						OFFSET 0 10 0	
						CHANNELS 3 Zrotation Xrotation Yrotation
						JOINT RightArm
						{
							OFFSET -15.6 -2 3	
							CHANNELS 3 Zrotation Xrotation Yrotation
							JOINT RightForeArm
							{
								OFFSET -3.5 -27 -1	
								CHANNELS 3 Zrotation Xrotation Yrotation
								JOINT RightHand
								{
									OFFSET -1 -27 1	
									CHANNELS 3 Zrotation Xrotation Yrotation
									End Site
									{
										OFFSET 0 -15 0
									}
								}
							}
						}
					}
					JOINT Neck
					{
						OFFSET 0 10 0	
						CHANNELS 3 Zrotation Xrotation Yrotation
						JOINT Head
						{
							OFFSET 0 12.7 3	
							CHANNELS 3 Zrotation Xrotation Yrotation
							End Site
							{
								OFFSET 0 12.7 3
							}
						}
					}
				}
			}
		}
	}
	JOINT LeftHip
	{
		OFFSET 0 0 0	
		CHANNELS 3 Zrotation Xrotation Yrotation
		JOINT LeftUpLeg
		{
			OFFSET 8.8 -6 0	
			CHANNELS 3 Zrotation Xrotation Yrotation
			JOINT LeftLeg
			{
				OFFSET 0 -39 2	
				CHANNELS 3 Zrotation Xrotation Yrotation
				JOINT LeftFoot
				{
					OFFSET 0 -43 -2	
					CHANNELS 3 Zrotation Xrotation Yrotation
					JOINT LeftFootFront
					{
						OFFSET 0 -7 8.5	
						CHANNELS 3 Zrotation Xrotation Yrotation
						End Site
						{
							OFFSET 0 -0.5 9
						}
					}
				}
				JOINT LeftHeel
				{
					OFFSET 0 -43 -2	
					CHANNELS 3 Zrotation Xrotation Yrotation
					End Site
					{
						OFFSET 0 -7.5 -5
					}
				}
			}
		}
	}
	JOINT RightHip
	{
		OFFSET 0 0 0	
		CHANNELS 3 Zrotation Xrotation Yrotation
		JOINT RightUpLeg
		{
			OFFSET -8.8 -6 0	
			CHANNELS 3 Zrotation Xrotation Yrotation
			JOINT RightLeg
			{
				OFFSET 0 -39 2	
				CHANNELS 3 Zrotation Xrotation Yrotation
				JOINT RightFoot
				{
					OFFSET 0 -43 -2	
					CHANNELS 3 Zrotation Xrotation Yrotation
					JOINT RightFootFront
					{
						OFFSET 0 -7 8.5	
						CHANNELS 3 Zrotation Xrotation Yrotation
						End Site
						{
							OFFSET 0 -0.5 9
						}
					}
				}
				JOINT RightHeel
				{
					OFFSET 0 -43 -2	
					CHANNELS 3 Zrotation Xrotation Yrotation
					End Site
					{
						OFFSET 0 -7.5 -5
					}
				}
			}
		}
	}
}
MOTION
Frames: 19
Frame Time: 0.025
0 96.98 0 -0 0 -0 2.6027 3.8496 53.159 -2.5856 -7.0565 1.7192 -2.5856 -7.0565 1.7192 -2.1843 -5.9224 1.4644 -0 0 -0 32.163 20.199 -15.599 -49.533 -30.729 -33.258 -0 0 -0 -0 0 -0 -29.061 20.919 -0.55787 58.197 7.9019 28.817 -0 0 -0 4.021 -20.369 -3.1625 4.021 -20.369 -3.1624 2.6027 3.8496 53.159 0.49831 -4.0324 6.0107 -2.9056 9.9238 -6.8276 -0 0 -0 -0 0 -0 -0 0 -0 2.6027 3.8496 53.159 -3.4952 -0.89019 -5.3711 0.97624 8.0026 -11.147 -0 0 -0 -0 0 -0 -0 0 -0 
0 96.98 0 -0 0 -0 2.541 3.4406 50.285 -2.4912 -7.1129 1.5535 -2.4912 -7.1129 1.5535 -2.1037 -5.9704 1.3247 -0 0 -0 32.08 20.628 -16.789 -49.131 -31.289 -32.694 -0 0 -0 -0 0 -0 -29.17 21.216 -0.73105 58.304 7.6583 28.875 -0 0 -0 4.8195 -20.239 -2.2155 4.8195 -20.239 -2.2155 2.541 3.4406 50.285 0.15161 -3.5752 6.5898 -3.2603 9.9079 -5.6553 -0 0 -0 -0 0 -0 -0 0 -0 2.541 3.4406 50.285 -3.8141 -1.4056 -5.5145 0.60559 8.1594 -9.2181 -0 0 -0 -0 0 -0 -0 0 -0 
0 96.98 0 -0 0 -0 2.4032 3.2859 47.356 -2.4455 -7.1959 1.3461 -2.4455 -7.1959 1.3461 -2.0637 -6.0409 1.1505 -0 0 -0 32.014 21.184 -17.738 -48.704 -31.889 -32.138 -0 0 -0 -0 0 -0 -29.239 21.499 -0.73095 58.369 7.3627 29.003 -0 0 -0 5.6552 -20.132 -1.2121 5.6552 -20.132 -1.2122 2.4032 3.2859 47.356 -0.62392 -3.2448 6.478 -3.45 9.7715 -3.9915 -0 0 -0 -0 0 -0 -0 0 -0 2.4032 3.2859 47.356 -4.201 -2.2799 -5.4777 0.21942 8.4144 -7.3035 -0 0 -0 -0 0 -0 -0 0 -0 
0 96.98 0 -0 0 -0 2.3859 3.3878 44.308 -2.4781 -7.2422 1.1466 -2.4781 -7.2422 1.1466 -2.0895 -6.0802 0.98346 -0 0 -0 31.967 21.681 -18.223 -48.498 -32.439 -31.787 -0 0 -0 -0 0 -0 -29.271 21.761 -0.58002 58.345 6.9343 29.274 -0 0 -0 6.5404 -20.071 -0.13394 6.5404 -20.071 -0.13395 2.3859 3.3878 44.308 -1.6339 -3.1326 6.3139 -3.5893 9.7717 -2.2301 -0 0 -0 -0 0 -0 -0 0 -0 2.3859 3.3878 44.308 -4.7383 -3.4107 -5.1274 -0.1872 8.808 -5.4465 -0 0 -0 -0 0 -0 -0 0 -0 
0 96.98 0 -0 0 -0 2.5642 3.5198 41.146 -2.5322 -7.181 0.96932 -2.5322 -7.181 0.96932 -2.1333 -6.0293 0.83495 -0 0 -0 31.891 21.961 -18.15 -48.614 -32.784 -31.679 -0 0 -0 -0 0 -0 -29.358 21.931 -0.32285 58.267 6.3978 29.609 -0 0 -0 7.4821 -20.063 1.0629 7.4821 -20.063 1.0629 2.5642 3.5198 41.146 -2.5839 -3.0736 6.2993 -3.883 9.9443 -0.36016 -0 0 -0 -0 0 -0 -0 0 -0 2.5642 3.5198 41.146 -5.302 -4.594 -4.5495 -0.64785 9.3341 -3.531 -0 0 -0 -0 0 -0 -0 0 -0 
0 96.98 0 -0 0 -0 2.8456 3.4451 37.916 -2.5198 -6.9779 0.80248 -2.5198 -6.9779 0.80248 -2.1214 -5.8591 0.69424 -0 0 -0 31.71 21.936 -17.6 -48.978 -32.857 -31.75 -0 0 -0 -0 0 -0 -29.604 21.915 -0.032358 58.212 5.8783 29.864 -0 0 -0 8.4957 -20.09 2.4373 8.4957 -20.09 2.4373 2.8456 3.4451 37.916 -3.2584 -2.8248 6.3002 -4.4402 10.113 1.7118 -0 0 -0 -0 0 -0 -0 0 -0 2.8456 3.4451 37.916 -5.6646 -5.6524 -3.9029 -1.2248 9.9188 -1.4348 -0 0 -0 -0 0 -0 -0 0 -0 
0 96.98 0 -0 0 -0 3.1258 3.0922 34.652 -2.4134 -6.6348 0.6423 -2.4134 -6.6348 0.64229 -2.0307 -5.5715 0.55799 -0 0 -0 31.404 21.608 -16.78 -49.461 -32.725 -31.878 -0 0 -0 -0 0 -0 -30.018 21.687 0.18942 58.232 5.5074 30.014 -0 0 -0 9.5957 -20.12 4.0117 9.5957 -20.12 4.0117 3.1258 3.0922 34.652 -3.6625 -2.3242 6.2543 -5.1659 10.142 3.9269 -0 0 -0 -0 0 -0 -0 0 -0 3.1258 3.0922 34.652 -5.7075 -6.4703 -3.2597 -1.9653 10.393 0.81061 -0 0 -0 -0 0 -0 -0 0 -0 
0 96.98 0 -0 0 -0 3.3493 2.5913 31.345 -2.2602 -6.228 0.50828 -2.2602 -6.228 0.50828 -1.901 -5.2303 0.44325 -0 0 -0 31.059 21.119 -15.964 -49.955 -32.52 -31.946 -0 0 -0 -0 0 -0 -30.513 21.387 0.30009 58.308 5.3124 30.144 -0 0 -0 10.78 -20.089 5.7368 10.78 -20.089 5.7368 3.3493 2.5913 31.345 -4.0109 -1.5994 6.2666 -5.8604 9.8568 6.1588 -0 0 -0 -0 0 -0 -0 0 -0 3.3493 2.5913 31.345 -5.5046 -7.0783 -2.5814 -2.8219 10.559 3.0164 -0 0 -0 -0 0 -0 -0 0 -0 
0 96.98 0 -0 0 -0 3.5079 2.1323 27.983 -2.1277 -5.8462 0.42104 -2.1277 -5.8462 0.42104 -1.789 -4.9098 0.36811 -0 0 -0 30.798 20.647 -15.355 -50.435 -32.38 -31.958 -0 0 -0 -0 0 -0 -30.973 21.173 0.28764 58.383 5.2319 30.289 -0 0 -0 12.029 -19.959 7.5248 12.029 -19.959 7.5248 3.5079 2.1323 27.983 -4.5506 -0.7764 6.4935 -6.3393 9.1695 8.2326 -0 0 -0 -0 0 -0 -0 0 -0 3.5079 2.1323 27.983 -5.2303 -7.6173 -1.8433 -3.6813 10.336 5.0178 -0 0 -0 -0 0 -0 -0 0 -0 
0 96.98 0 -0 0 -0 3.621 1.7827 24.623 -2.0508 -5.5136 0.36685 -2.0508 -5.5136 0.36685 -1.7242 -4.6306 0.3213 -0 0 -0 30.673 20.309 -15.02 -50.932 -32.42 -31.993 -0 0 -0 -0 0 -0 -31.341 21.071 0.14858 58.434 5.202 30.391 -0 0 -0 13.31 -19.73 9.2941 13.31 -19.73 9.2941 3.621 1.7827 24.623 -5.3285 -0.044171 7.0468 -6.5428 8.2018 9.8754 -0 0 -0 -0 0 -0 -0 0 -0 3.621 1.7827 24.623 -4.9979 -8.2 -1.0795 -4.4553 9.8051 6.7046 -0 0 -0 -0 0 -0 -0 0 -0 
0 96.98 0 -0 0 -0 3.681 1.4889 21.356 -2.0134 -5.2146 0.31354 -2.0134 -5.2146 0.31353 -1.6923 -4.3796 0.27559 -0 0 -0 30.62 20.139 -14.946 -51.416 -32.68 -32.054 -0 0 -0 -0 0 -0 -31.653 21.033 -0.096609 58.46 5.1904 30.417 -0 0 -0 14.579 -19.415 10.994 14.579 -19.415 10.994 3.681 1.4889 21.356 -6.1978 0.51988 7.7903 -6.5578 7.1148 11.026 -0 0 -0 -0 0 -0 -0 0 -0 3.681 1.4889 21.356 -4.7883 -8.84 -0.26836 -5.0758 9.0942 7.76 -0 0 -0 -0 0 -0 -0 0 -0 
0 96.98 0 -0 0 -0 3.6573 1.1646 18.263 -1.9809 -4.9188 0.23202 -1.9809 -4.9188 0.23202 -1.6646 -4.1313 0.20627 -0 0 -0 30.538 20.071 -15.04 -51.816 -33.078 -32.098 -0 0 -0 -0 0 -0 -31.957 20.978 -0.45371 58.459 5.2011 30.381 -0 0 -0 15.807 -19.037 12.602 15.807 -19.037 12.602 3.6573 1.1646 18.263 -6.9721 0.96466 8.2555 -6.5364 6.0202 12.076 -0 0 -0 -0 0 -0 -0 0 -0 3.6573 1.1646 18.263 -4.5769 -9.482 0.58366 -5.3901 8.303 7.4422 -0 0 -0 -0 0 -0 -0 0 -0 
0 96.98 0 -0 0 -0 3.5519 0.78463 15.417 -1.9537 -4.6122 0.097091 -1.9537 -4.6122 0.097085 -1.641 -3.8741 0.092121 -0 0 -0 30.402 20.042 -15.175 -52.096 -33.489 -32.129 -0 0 -0 -0 0 -0 -32.245 20.811 -0.92448 58.443 5.268 30.27 -0 0 -0 16.996 -18.604 14.104 16.996 -18.604 14.104 3.5519 0.78463 15.417 -7.5081 1.3104 8.0845 -6.614 5.0343 13.494 -0 0 -0 -0 0 -0 -0 0 -0 3.5519 0.78463 15.417 -4.4394 -10.06 1.2688 -5.1927 7.439 4.705 -0 0 -0 -0 0 -0 -0 0 -0 
0 96.98 0 -0 0 -0 3.3876 0.40838 12.869 -1.9541 -4.3244 -0.10632 -1.9541 -4.3244 -0.10632 -1.6404 -3.6328 -0.079349 -0 0 -0 30.269 20.074 -15.315 -52.28 -33.871 -32.163 -0 0 -0 -0 0 -0 -32.49 20.492 -1.4504 58.442 5.4001 30.033 -0 0 -0 18.159 -18.104 15.491 18.159 -18.104 15.491 3.3876 0.40838 12.869 -7.8178 1.5146 7.4173 -6.7637 4.2432 15.324 -0 0 -0 -0 0 -0 -0 0 -0 3.3876 0.40838 12.869 -4.4854 -10.536 1.3923 -4.3687 6.3824 -0.69741 -0 0 -0 -0 0 -0 -0 0 -0 
0 96.98 0 -0 0 -0 3.174 0.14329 10.633 -1.9811 -4.1108 -0.36833 -1.9811 -4.1108 -0.36833 -1.6619 -3.454 -0.29974 -0 0 -0 30.17 20.22 -15.544 -52.343 -34.28 -32.152 -0 0 -0 -0 0 -0 -32.717 20.049 -1.9446 58.484 5.5403 29.636 -0 0 -0 19.266 -17.523 16.738 19.266 -17.523 16.738 3.174 0.14329 10.633 -8.0089 1.522 6.7734 -6.8672 3.6701 17.129 -0 0 -0 -0 0 -0 -0 0 -0 3.174 0.14329 10.633 -4.7196 -10.982 0.57396 -3.1044 5.2687 -7.0262 -0 0 -0 -0 0 -0 -0 0 -0 
0 96.98 0 -0 0 -0 2.9399 0.11396 8.5982 -2.0147 -4.044 -0.6252 -2.0147 -4.044 -0.6252 -1.6889 -3.3985 -0.51545 -0 0 -0 30.072 20.517 -15.991 -52.225 -34.79 -31.998 -0 0 -0 -0 0 -0 -32.99 19.572 -2.3024 58.585 5.5968 29.082 -0 0 -0 20.248 -16.845 17.788 20.248 -16.845 17.788 2.9399 0.11396 8.5982 -8.1718 1.2632 6.6826 -6.8617 3.3011 18.378 -0 0 -0 -0 0 -0 -0 0 -0 2.9399 0.11396 8.5982 -4.9722 -11.676 -1.276 -1.8596 4.9281 -11.732 -0 0 -0 -0 0 -0 -0 0 -0 
0 96.98 0 -0 0 -0 2.6959 0.31373 6.5896 -2.0134 -4.1379 -0.79058 -2.0134 -4.1379 -0.79058 -1.6869 -3.4778 -0.6541 -0 0 -0 29.935 20.94 -16.701 -51.946 -35.45 -31.618 -0 0 -0 -0 0 -0 -33.357 19.122 -2.4467 58.745 5.507 28.415 -0 0 -0 21.034 -16.097 18.592 21.034 -16.097 18.592 2.6959 0.31373 6.5896 -8.2887 0.75506 7.2972 -6.7406 3.1039 18.943 -0 0 -0 -0 0 -0 -0 0 -0 2.6959 0.31373 6.5896 -4.9563 -12.83 -3.8437 -1.0141 6.2964 -12.781 -0 0 -0 -0 0 -0 -0 0 -0 
0 96.98 0 -0 0 -0 2.3703 0.42262 4.713 -1.9247 -4.2382 -0.91358 -1.9247 -4.2382 -0.91358 -1.6117 -3.5622 -0.75759 -0 0 -0 29.719 21.409 -17.457 -51.632 -36.221 -31.066 -0 0 -0 -0 0 -0 -33.808 18.593 -2.3348 58.938 5.2879 27.719 -0 0 -0 21.604 -15.361 19.209 21.604 -15.361 19.209 2.3703 0.42262 4.713 -8.2352 0.34023 8.1965 -6.5076 3.0124 19.133 -0 0 -0 -0 0 -0 -0 0 -0 2.3703 0.42262 4.713 -4.502 -14.091 -6.657 -0.73094 9.446 -9.8177 -0 0 -0 -0 0 -0 -0 0 -0 
0 96.98 0 -0 0 -0 1.9206 0.18111 3.1165 -1.7547 -4.205 -1.0561 -1.7547 -4.205 -1.0561 -1.4683 -3.5344 -0.87815 -0 0 -0 29.444 21.822 -18.016 -51.358 -36.996 -30.471 -0 0 -0 -0 0 -0 -34.243 17.93 -2.0097 59.126 5.0183 27.094 -0 0 -0 21.987 -14.723 19.694 21.987 -14.723 19.694 1.9206 0.18111 3.1165 -7.9535 0.33108 8.9273 -6.2127 2.9609 19.364 -0 0 -0 -0 0 -0 -0 0 -0 1.9206 0.18111 3.1165 -3.6899 -14.97 -8.9636 -0.99835 13.715 -4.9027 -0 0 -0 -0 0 -0 -0 0 -0 
